<?xml version="1.0" encoding="iso-8859-1"?>
<!-- Generator: Adobe Illustrator 23.0.6, SVG Export Plug-In . SVG Version: 6.00 Build 0)  -->
<svg version="1.1" baseProfile="basic" id="&#x421;&#x43B;&#x43E;&#x439;_1"
	 xmlns="http://www.w3.org/2000/svg" xmlns:xlink="http://www.w3.org/1999/xlink" x="0px" y="0px" viewBox="0 0 64 64"
	 xml:space="preserve">
<linearGradient id="SVGID_1_" gradientUnits="userSpaceOnUse" x1="25.4927" y1="18" x2="25.4927" y2="9.9658">
	<stop  offset="0" style="stop-color:#E6ABFF"/>
	<stop  offset="1" style="stop-color:#6DC7FF"/>
</linearGradient>
<polygon style="fill:url(#SVGID_1_);" points="20.745,18 25.493,9.966 30.24,18 "/>
<linearGradient id="SVGID_2_" gradientUnits="userSpaceOnUse" x1="38.4927" y1="18" x2="38.4927" y2="9.9658">
	<stop  offset="0" style="stop-color:#E6ABFF"/>
	<stop  offset="1" style="stop-color:#6DC7FF"/>
</linearGradient>
<polygon style="fill:url(#SVGID_2_);" points="33.745,18 38.493,9.966 43.24,18 "/>
<linearGradient id="SVGID_3_" gradientUnits="userSpaceOnUse" x1="31.9927" y1="17.0342" x2="31.9927" y2="9">
	<stop  offset="0" style="stop-color:#E6ABFF"/>
	<stop  offset="1" style="stop-color:#6DC7FF"/>
</linearGradient>
<polygon style="fill:url(#SVGID_3_);" points="27.245,9 36.74,9 31.993,17.034 "/>
<linearGradient id="SVGID_4_" gradientUnits="userSpaceOnUse" x1="25.4927" y1="28.0342" x2="25.4927" y2="20">
	<stop  offset="0" style="stop-color:#E6ABFF"/>
	<stop  offset="1" style="stop-color:#6DC7FF"/>
</linearGradient>
<polygon style="fill:url(#SVGID_4_);" points="20.745,20 30.24,20 25.493,28.034 "/>
<linearGradient id="SVGID_5_" gradientUnits="userSpaceOnUse" x1="32.8789" y1="37" x2="32.8789" y2="4">
	<stop  offset="0" style="stop-color:#C822FF"/>
	<stop  offset="1" style="stop-color:#1A6DFF"/>
</linearGradient>
<path style="fill:url(#SVGID_5_);" d="M25.486,37c-0.354,0-0.681-0.187-0.861-0.491l-9.978-17c-0.186-0.314-0.186-0.704,0-1.018
	l8.273-14C23.1,4.187,23.427,4,23.781,4h16.424c0.354,0,0.681,0.187,0.861,0.491l10.045,17c0.183,0.309,0.186,0.692,0.008,1.004
	C50.94,22.808,50.609,23,50.25,23H34.275l-7.929,13.509C26.167,36.813,25.839,37,25.486,37z M16.669,19l8.823,14.932l7.351-12.44
	C33.023,21.187,33.351,21,33.705,21h14.793L39.634,6H24.352L16.669,19z"/>
<linearGradient id="SVGID_6_" gradientUnits="userSpaceOnUse" x1="31.129" y1="60.0215" x2="31.129" y2="27.0437">
	<stop  offset="0" style="stop-color:#C822FF"/>
	<stop  offset="1" style="stop-color:#1A6DFF"/>
</linearGradient>
<path style="fill:url(#SVGID_6_);" d="M40.227,60.021H23.803c-0.354,0-0.681-0.187-0.861-0.491l-10.045-17
	c-0.183-0.31-0.186-0.692-0.008-1.005c0.178-0.312,0.51-0.504,0.869-0.504h15.975L37.653,27.5c0.359-0.608,1.362-0.608,1.722,0
	l9.986,17.013c0.186,0.313,0.186,0.704,0,1.018l-8.273,14C40.908,59.835,40.581,60.021,40.227,60.021z M24.374,58.021h15.282
	l7.682-13l-8.823-14.931L31.164,42.53c-0.18,0.305-0.507,0.491-0.861,0.491H15.51L24.374,58.021z"/>
<linearGradient id="SVGID_7_" gradientUnits="userSpaceOnUse" x1="25.4829" y1="-9" x2="25.4829" y2="-17.0342" gradientTransform="matrix(-1 0 0 -1 63.9854 37.0342)">
	<stop  offset="0" style="stop-color:#E6ABFF"/>
	<stop  offset="1" style="stop-color:#6DC7FF"/>
</linearGradient>
<polygon style="fill:url(#SVGID_7_);" points="43.25,46.034 38.502,54.068 33.755,46.034 "/>
<linearGradient id="SVGID_8_" gradientUnits="userSpaceOnUse" x1="38.4829" y1="-9" x2="38.4829" y2="-17.0342" gradientTransform="matrix(-1 0 0 -1 63.9854 37.0342)">
	<stop  offset="0" style="stop-color:#E6ABFF"/>
	<stop  offset="1" style="stop-color:#6DC7FF"/>
</linearGradient>
<polygon style="fill:url(#SVGID_8_);" points="30.25,46.034 25.502,54.068 20.755,46.034 "/>
<linearGradient id="SVGID_9_" gradientUnits="userSpaceOnUse" x1="31.9829" y1="-9.9658" x2="31.9829" y2="-18" gradientTransform="matrix(-1 0 0 -1 63.9854 37.0342)">
	<stop  offset="0" style="stop-color:#E6ABFF"/>
	<stop  offset="1" style="stop-color:#6DC7FF"/>
</linearGradient>
<polygon style="fill:url(#SVGID_9_);" points="36.75,55.034 27.255,55.034 32.002,47 "/>
<linearGradient id="SVGID_10_" gradientUnits="userSpaceOnUse" x1="25.4829" y1="1.0342" x2="25.4829" y2="-7" gradientTransform="matrix(-1 0 0 -1 63.9854 37.0342)">
	<stop  offset="0" style="stop-color:#E6ABFF"/>
	<stop  offset="1" style="stop-color:#6DC7FF"/>
</linearGradient>
<polygon style="fill:url(#SVGID_10_);" points="43.25,44.034 33.755,44.034 38.502,36 "/>
</svg>